<svg width="72" height="72" viewBox="0 0 72 72" fill="none" xmlns="http://www.w3.org/2000/svg">
<rect x="2" y="10" width="60" height="60" rx="10" stroke="#111111" stroke-width="4"/>
<path fill-rule="evenodd" clip-rule="evenodd" d="M23.2994 27.7298C20.9227 30.1491 18.961 34.4408 17.9077 37.7861C17.576 38.8397 16.453 39.4249 15.3994 39.0932C14.3458 38.7615 13.7606 37.6384 14.0924 36.5849C15.2095 33.0367 17.405 28.0221 20.446 24.9266C21.9782 23.3668 23.9532 22.0648 26.3102 22.0023C28.7322 21.938 30.9944 23.1912 33.0343 25.5308C34.2743 26.953 35.1158 28.3605 35.4058 29.7907C35.7155 31.3183 35.3563 32.6764 34.5743 33.8024C33.8462 34.8509 32.7934 35.6428 31.7636 36.2717C30.7197 36.9092 29.5276 37.4792 28.4005 38.0078C28.3138 38.0484 28.2277 38.0888 28.1419 38.129C25.8575 39.1996 23.9022 40.116 22.6543 41.2984C22.0548 41.8664 21.7255 42.4052 21.5895 42.9484C21.4564 43.4799 21.4575 44.217 21.871 45.2803C22.6994 47.4109 24.7734 49.4487 27.675 51.0556C30.5419 52.6434 33.9774 53.6724 37.1388 53.9341C40.3675 54.2015 42.9458 53.645 44.423 52.505C45.1203 51.9669 45.5994 51.2836 45.8343 50.3958C46.0759 49.4826 46.0905 48.2275 45.6258 46.5345C44.7567 43.368 42.8358 41.8579 40.6226 41.2348C38.2817 40.5758 35.4958 40.8953 33.2001 41.757C32.0643 42.1834 31.1375 42.7102 30.5036 43.2275C30.1885 43.4846 29.9763 43.7145 29.8454 43.8981C29.7905 43.9752 29.7555 44.0361 29.7333 44.0808C29.7664 44.1106 29.8154 44.1504 29.8867 44.2007C30.3511 44.5285 31.3766 44.9568 33.3207 45.243C34.4135 45.4039 35.169 46.4201 35.0081 47.5129C34.8472 48.6057 33.831 49.3612 32.7382 49.2003C30.5501 48.8783 28.7974 48.3277 27.5802 47.4687C26.2585 46.5359 25.4662 45.1267 25.7578 43.4761C26.0069 42.0658 26.9837 40.937 27.9748 40.1283C29.0166 39.2782 30.3476 38.5553 31.7944 38.0122C34.6638 36.9351 38.3422 36.4373 41.7065 37.3845C45.1985 38.3675 48.2236 40.8871 49.4832 45.4758C50.0828 47.6605 50.1678 49.6557 49.7012 51.419C49.2279 53.2078 48.22 54.6273 46.8669 55.6716C44.2432 57.6964 40.4668 58.2234 36.8087 57.9205C33.0832 57.612 29.0996 56.4171 25.7371 54.5549C22.4092 52.7119 19.4431 50.0738 18.1429 46.73C17.4921 45.0562 17.3367 43.4648 17.7093 41.9767C18.079 40.5004 18.9178 39.3284 19.9031 38.3948C21.6423 36.7469 24.1606 35.5722 26.2273 34.6081C26.3885 34.533 26.5469 34.4591 26.702 34.3863C27.8443 33.8505 28.8475 33.3656 29.6789 32.8579C30.5244 32.3415 31.027 31.8979 31.2889 31.5208C31.4969 31.2212 31.5622 30.9637 31.4856 30.5857C31.3892 30.1103 31.0333 29.3225 30.0194 28.1595C28.453 26.363 27.2426 25.979 26.4163 26.0009C25.525 26.0245 24.476 26.5321 23.2994 27.7298ZM29.6709 44.012C29.6721 44.0121 29.6774 44.0183 29.6832 44.0305C29.6727 44.0179 29.6697 44.0119 29.6709 44.012Z" fill="#111111"/>
<circle cx="62" cy="10" r="10" fill="#39FFA0"/>
</svg>
