<svg width="188" height="75" viewBox="0 0 188 75" fill="none" xmlns="http://www.w3.org/2000/svg">
<mask id="mask0_1_507" style="mask-type:alpha" maskUnits="userSpaceOnUse" x="0" y="0" width="188" height="75">
<rect x="2" y="2" width="184" height="71" rx="35.5" stroke="black" stroke-width="4"/>
</mask>
<g mask="url(#mask0_1_507)">
<g filter="url(#filter0_f_1_507)">
<circle cx="60.9425" cy="49.0957" r="84.0957" fill="#FF3939"/>
</g>
<g filter="url(#filter1_f_1_507)">
<circle cx="189.5" cy="31.4805" r="41.582" fill="#39FFA0"/>
</g>
<g filter="url(#filter2_f_1_507)">
<circle cx="128.016" cy="71.6228" r="84.0957" fill="#FF8139"/>
<circle cx="128.016" cy="71.6228" r="84.0957" fill="#FF8139"/>
</g>
<g filter="url(#filter3_f_1_507)">
<circle cx="3.60844" cy="20.725" r="27.6084" fill="#FF3998"/>
</g>
</g>
<path d="M65.8297 33.4531C65.7634 32.8329 65.4841 32.3499 64.9917 32.0043C64.504 31.6586 63.8695 31.4858 63.0882 31.4858C62.539 31.4858 62.0679 31.5687 61.6749 31.7344C61.2819 31.9001 60.9812 32.125 60.7729 32.4091C60.5646 32.6932 60.458 33.0175 60.4533 33.3821C60.4533 33.6851 60.522 33.9479 60.6593 34.1705C60.8013 34.393 60.9931 34.5824 61.2346 34.7386C61.476 34.8902 61.7435 35.018 62.0371 35.1222C62.3307 35.2263 62.6266 35.3139 62.9249 35.3849L64.2885 35.7259C64.8378 35.8537 65.3657 36.0265 65.8723 36.2443C66.3837 36.4621 66.8406 36.7367 67.2431 37.0682C67.6503 37.3996 67.9722 37.7997 68.209 38.2685C68.4457 38.7372 68.5641 39.2865 68.5641 39.9162C68.5641 40.7685 68.3463 41.5189 67.9107 42.1676C67.4751 42.8116 66.8453 43.3158 66.0215 43.6804C65.2024 44.0402 64.2104 44.2202 63.0456 44.2202C61.914 44.2202 60.9315 44.045 60.0982 43.6946C59.2696 43.3442 58.6209 42.8329 58.1522 42.1605C57.6882 41.4882 57.4372 40.669 57.3993 39.7031H59.9917C60.0295 40.2098 60.1858 40.6312 60.4604 40.9673C60.735 41.3035 61.0925 41.5545 61.5328 41.7202C61.9779 41.8859 62.4751 41.9688 63.0243 41.9688C63.5972 41.9688 64.0991 41.8835 64.53 41.7131C64.9656 41.5379 65.3065 41.2964 65.5527 40.9886C65.7989 40.6761 65.9244 40.3116 65.9292 39.8949C65.9244 39.5161 65.8132 39.2036 65.5953 38.9574C65.3775 38.7064 65.0721 38.4981 64.6792 38.3324C64.2909 38.1619 63.8364 38.0104 63.3155 37.8778L61.6607 37.4517C60.4628 37.1439 59.5158 36.6776 58.8198 36.0526C58.1285 35.4228 57.7828 34.5871 57.7828 33.5455C57.7828 32.6884 58.0149 31.938 58.4789 31.294C58.9476 30.6501 59.5845 30.1506 60.3894 29.7955C61.1943 29.4356 62.1058 29.2557 63.1238 29.2557C64.156 29.2557 65.0603 29.4356 65.8368 29.7955C66.6181 30.1506 67.2312 30.6454 67.6763 31.2798C68.1214 31.9096 68.351 32.634 68.3652 33.4531H65.8297ZM70.7995 44V33.0909H73.3706V44H70.7995ZM72.0922 31.5426C71.685 31.5426 71.3346 31.4077 71.041 31.1378C70.7475 30.8632 70.6007 30.5341 70.6007 30.1506C70.6007 29.7623 70.7475 29.4332 71.041 29.1634C71.3346 28.8887 71.685 28.7514 72.0922 28.7514C72.5041 28.7514 72.8545 28.8887 73.1433 29.1634C73.4368 29.4332 73.5836 29.7623 73.5836 30.1506C73.5836 30.5341 73.4368 30.8632 73.1433 31.1378C72.8545 31.4077 72.5041 31.5426 72.0922 31.5426ZM80.7587 48.3182C79.8354 48.3182 79.0423 48.1927 78.3794 47.9418C77.7166 47.6955 77.1839 47.3641 76.7814 46.9474C76.379 46.5308 76.0996 46.0691 75.9434 45.5625L78.2587 45.0014C78.3629 45.2145 78.5144 45.4252 78.7132 45.6335C78.9121 45.8466 79.1796 46.0218 79.5158 46.1591C79.8567 46.3011 80.2852 46.3722 80.8013 46.3722C81.5305 46.3722 82.1342 46.1946 82.6124 45.8395C83.0906 45.4891 83.3297 44.9115 83.3297 44.1065V42.0398H83.2019C83.0693 42.3049 82.8752 42.5772 82.6195 42.8565C82.3685 43.1359 82.0347 43.3703 81.6181 43.5597C81.2061 43.7491 80.6877 43.8438 80.0627 43.8438C79.2246 43.8438 78.4647 43.6473 77.7828 43.2543C77.1058 42.8565 76.566 42.2647 76.1635 41.4787C75.7658 40.688 75.5669 39.6984 75.5669 38.5099C75.5669 37.312 75.7658 36.3011 76.1635 35.4773C76.566 34.6487 77.1081 34.0213 77.79 33.5952C78.4718 33.1643 79.2317 32.9489 80.0698 32.9489C80.709 32.9489 81.2346 33.0578 81.6465 33.2756C82.0632 33.4886 82.3946 33.7467 82.6408 34.0497C82.887 34.348 83.074 34.6297 83.2019 34.8949H83.3439V33.0909H85.8794V44.1776C85.8794 45.1103 85.6569 45.8821 85.2118 46.4929C84.7667 47.1037 84.1583 47.5606 83.3865 47.8636C82.6148 48.1667 81.7388 48.3182 80.7587 48.3182ZM80.78 41.8267C81.3245 41.8267 81.7885 41.6941 82.1721 41.429C82.5556 41.1638 82.8468 40.7827 83.0456 40.2855C83.2445 39.7884 83.3439 39.1918 83.3439 38.4957C83.3439 37.8092 83.2445 37.2079 83.0456 36.6918C82.8515 36.1757 82.5627 35.7756 82.1792 35.4915C81.8004 35.2027 81.334 35.0582 80.78 35.0582C80.2071 35.0582 79.7289 35.2074 79.3453 35.5057C78.9618 35.804 78.673 36.2135 78.4789 36.7344C78.2847 37.2505 78.1877 37.8376 78.1877 38.4957C78.1877 39.1634 78.2847 39.7481 78.4789 40.25C78.6777 40.7472 78.9689 41.1354 79.3525 41.4148C79.7407 41.6894 80.2166 41.8267 80.78 41.8267ZM91.0854 37.608V44H88.5144V33.0909H90.9718V34.9446H91.0996C91.3506 34.3338 91.7507 33.8485 92.2999 33.4886C92.8539 33.1288 93.5381 32.9489 94.3525 32.9489C95.1053 32.9489 95.7611 33.1098 96.3198 33.4318C96.8832 33.7538 97.3188 34.2202 97.6266 34.831C97.9391 35.4418 98.093 36.1828 98.0882 37.054V44H95.5172V37.4517C95.5172 36.7225 95.3278 36.152 94.949 35.7401C94.575 35.3281 94.0565 35.1222 93.3936 35.1222C92.9438 35.1222 92.5437 35.2216 92.1934 35.4205C91.8477 35.6146 91.5755 35.8963 91.3766 36.2656C91.1825 36.6349 91.0854 37.0824 91.0854 37.608ZM114.945 29.4545H117.58V38.9574C117.58 39.9991 117.334 40.9152 116.842 41.706C116.354 42.4967 115.668 43.1146 114.782 43.5597C113.897 44 112.862 44.2202 111.678 44.2202C110.49 44.2202 109.453 44 108.568 43.5597C107.682 43.1146 106.996 42.4967 106.508 41.706C106.02 40.9152 105.776 39.9991 105.776 38.9574V29.4545H108.411V38.7372C108.411 39.3433 108.544 39.883 108.809 40.3565C109.079 40.83 109.458 41.2017 109.945 41.4716C110.433 41.7367 111.011 41.8693 111.678 41.8693C112.346 41.8693 112.924 41.7367 113.411 41.4716C113.904 41.2017 114.283 40.83 114.548 40.3565C114.813 39.883 114.945 39.3433 114.945 38.7372V29.4545ZM120.331 48.0909V33.0909H122.859V34.8949H123.008C123.141 34.6297 123.328 34.348 123.569 34.0497C123.811 33.7467 124.138 33.4886 124.55 33.2756C124.961 33.0578 125.487 32.9489 126.126 32.9489C126.969 32.9489 127.729 33.1643 128.406 33.5952C129.088 34.0213 129.628 34.6534 130.025 35.4915C130.428 36.3248 130.629 37.3475 130.629 38.5597C130.629 39.7576 130.433 40.7756 130.04 41.6136C129.647 42.4517 129.112 43.0909 128.434 43.5312C127.757 43.9716 126.99 44.1918 126.133 44.1918C125.508 44.1918 124.99 44.0876 124.578 43.8793C124.166 43.6709 123.835 43.42 123.584 43.1264C123.337 42.8281 123.146 42.5464 123.008 42.2812H122.902V48.0909H120.331ZM122.852 38.5455C122.852 39.2509 122.952 39.8688 123.15 40.3991C123.354 40.9295 123.645 41.3437 124.024 41.642C124.407 41.9356 124.872 42.0824 125.416 42.0824C125.984 42.0824 126.46 41.9309 126.844 41.6278C127.227 41.3201 127.516 40.901 127.71 40.3707C127.909 39.8357 128.008 39.2273 128.008 38.5455C128.008 37.8684 127.911 37.267 127.717 36.7415C127.523 36.2159 127.234 35.804 126.851 35.5057C126.467 35.2074 125.989 35.0582 125.416 35.0582C124.867 35.0582 124.4 35.2027 124.017 35.4915C123.633 35.7803 123.342 36.1851 123.143 36.706C122.949 37.2268 122.852 37.84 122.852 38.5455Z" fill="white"/>
<defs>
<filter id="filter0_f_1_507" x="-72.6112" y="-84.4581" width="267.107" height="267.107" filterUnits="userSpaceOnUse" color-interpolation-filters="sRGB">
<feFlood flood-opacity="0" result="BackgroundImageFix"/>
<feBlend mode="normal" in="SourceGraphic" in2="BackgroundImageFix" result="shape"/>
<feGaussianBlur stdDeviation="24.729" result="effect1_foregroundBlur_1_507"/>
</filter>
<filter id="filter1_f_1_507" x="98.4595" y="-59.5596" width="182.08" height="182.08" filterUnits="userSpaceOnUse" color-interpolation-filters="sRGB">
<feFlood flood-opacity="0" result="BackgroundImageFix"/>
<feBlend mode="normal" in="SourceGraphic" in2="BackgroundImageFix" result="shape"/>
<feGaussianBlur stdDeviation="24.729" result="effect1_foregroundBlur_1_507"/>
</filter>
<filter id="filter2_f_1_507" x="-5.53791" y="-61.931" width="267.107" height="267.107" filterUnits="userSpaceOnUse" color-interpolation-filters="sRGB">
<feFlood flood-opacity="0" result="BackgroundImageFix"/>
<feBlend mode="normal" in="SourceGraphic" in2="BackgroundImageFix" result="shape"/>
<feGaussianBlur stdDeviation="24.729" result="effect1_foregroundBlur_1_507"/>
</filter>
<filter id="filter3_f_1_507" x="-73.4581" y="-56.3415" width="154.133" height="154.133" filterUnits="userSpaceOnUse" color-interpolation-filters="sRGB">
<feFlood flood-opacity="0" result="BackgroundImageFix"/>
<feBlend mode="normal" in="SourceGraphic" in2="BackgroundImageFix" result="shape"/>
<feGaussianBlur stdDeviation="24.729" result="effect1_foregroundBlur_1_507"/>
</filter>
</defs>
</svg>
