<svg width="198" height="36" viewBox="0 0 198 36" fill="none" xmlns="http://www.w3.org/2000/svg">
<path fill-rule="evenodd" clip-rule="evenodd" d="M9.29989 5.72981C6.92316 8.14916 4.96148 12.4408 3.90822 15.7862C3.5765 16.8398 2.45349 17.4249 1.39991 17.0932C0.346325 16.7615 -0.238863 15.6385 0.0928548 14.5849C1.21 11.0367 3.40549 6.02211 6.44644 2.92663C7.9787 1.36689 9.95366 0.0648794 12.3107 0.00235343C14.7327 -0.0618963 16.9949 1.19127 19.0348 3.53089C20.2747 4.95302 21.1162 6.36056 21.4063 7.79078C21.716 9.31834 21.3568 10.6765 20.5748 11.8024C19.8467 12.851 18.7939 13.6429 17.7641 14.2717C16.7202 14.9092 15.5281 15.4792 14.401 16.0079C14.3143 16.0485 14.2281 16.0889 14.1424 16.1291C11.858 17.1997 9.90268 18.116 8.65479 19.2984C8.05532 19.8665 7.72603 20.4052 7.58999 20.9485C7.45688 21.48 7.45799 22.217 7.87148 23.2804C8.69994 25.4109 10.7738 27.4488 13.6755 29.0557C16.5424 30.6434 19.9779 31.6724 23.1393 31.9342C26.368 32.2015 28.9463 31.6451 30.4235 30.505C31.1208 29.9669 31.5999 29.2836 31.8348 28.3959C32.0764 27.4827 32.091 26.2275 31.6263 24.5346C30.7572 21.3681 28.8363 19.8579 26.6231 19.2348C24.2822 18.5758 21.4963 18.8954 19.2006 19.7571C18.0648 20.1834 17.138 20.7103 16.5041 21.2275C16.189 21.4847 15.9768 21.7146 15.8459 21.8982C15.791 21.9752 15.756 22.0362 15.7338 22.0809C15.7669 22.1107 15.8159 22.1504 15.8872 22.2007C16.3516 22.5285 17.3771 22.9569 19.3212 23.2431C20.414 23.4039 21.1695 24.4202 21.0086 25.513C20.8477 26.6058 19.8314 27.3613 18.7387 27.2004C16.5506 26.8783 14.7978 26.3278 13.5807 25.4688C12.259 24.536 11.4667 23.1268 11.7583 21.4762C12.0074 20.0658 12.9842 18.9371 13.9753 18.1284C15.0171 17.2782 16.3481 16.5553 17.7949 16.0122C20.6643 14.9352 24.3427 14.4374 27.707 15.3845C31.1989 16.3676 34.2241 18.8871 35.4836 23.4758C36.0833 25.6606 36.1683 27.6557 35.7017 29.4191C35.2283 31.2079 34.2205 32.6274 32.8674 33.6717C30.2437 35.6965 26.4673 36.2234 22.8092 35.9205C19.0837 35.6121 15.1001 34.4171 11.7376 32.5549C8.40967 30.7119 5.44363 28.0738 4.14341 24.7301C3.49257 23.0563 3.33716 21.4648 3.70981 19.9768C4.07952 18.5004 4.91826 17.3285 5.90355 16.3949C7.64275 14.7469 10.1611 13.5722 12.2278 12.6082C12.389 12.533 12.5474 12.4591 12.7025 12.3864C13.8448 11.8506 14.848 11.3656 15.6794 10.8579C16.5249 10.3416 17.0275 9.89793 17.2893 9.52088C17.4974 9.22124 17.5627 8.96371 17.4861 8.58573C17.3897 8.1104 17.0338 7.32253 16.0198 6.15958C14.4535 4.36307 13.2431 3.97903 12.4168 4.00095C11.5255 4.02459 10.4765 4.53213 9.29989 5.72981ZM15.6714 22.012C15.6726 22.0121 15.6779 22.0184 15.6837 22.0306C15.6732 22.018 15.6702 22.0119 15.6714 22.012Z" fill="white"/>
<path d="M51.4725 28.14C51.1178 28.14 50.8192 28.0187 50.5765 27.776C50.3338 27.5333 50.2125 27.2347 50.2125 26.88V14.868C50.2125 14.5133 50.3338 14.2147 50.5765 13.972C50.8192 13.7107 51.1178 13.58 51.4725 13.58C51.8272 13.58 52.1258 13.7107 52.3685 13.972C52.6298 14.2147 52.7605 14.5133 52.7605 14.868V16.016C53.4698 15.232 54.2352 14.6067 55.0565 14.14C55.8778 13.6733 56.8485 13.44 57.9685 13.44C58.9952 13.44 59.8818 13.6827 60.6285 14.168C61.3938 14.6533 61.9725 15.316 62.3645 16.156C62.7752 16.996 62.9805 17.92 62.9805 18.928V26.88C62.9805 27.2347 62.8498 27.5333 62.5885 27.776C62.3458 28.0187 62.0472 28.14 61.6925 28.14C61.3378 28.14 61.0392 28.0187 60.7965 27.776C60.5538 27.5333 60.4325 27.2347 60.4325 26.88V19.208C60.4325 16.9307 59.4058 15.792 57.3525 15.792C56.4192 15.792 55.5792 16.0347 54.8325 16.52C54.1045 17.0053 53.4138 17.6587 52.7605 18.48V26.88C52.7605 27.2347 52.6298 27.5333 52.3685 27.776C52.1258 28.0187 51.8272 28.14 51.4725 28.14ZM70.6435 28.14C70.2889 28.14 69.9902 28.0187 69.7475 27.776C69.5049 27.5333 69.3835 27.2347 69.3835 26.88V15.904H67.7315C67.4329 15.904 67.1715 15.8013 66.9475 15.596C66.7422 15.372 66.6395 15.1107 66.6395 14.812C66.6395 14.4947 66.7422 14.2333 66.9475 14.028C67.1715 13.8227 67.4329 13.72 67.7315 13.72H69.3835V12.096C69.3835 10.976 69.5795 10.0613 69.9715 9.352C70.3822 8.624 70.9049 8.10133 71.5395 7.784C72.1929 7.448 72.8742 7.28 73.5835 7.28C74.4609 7.28 75.2729 7.46667 76.0195 7.84C76.2062 7.93333 76.3555 8.07333 76.4675 8.26C76.5982 8.428 76.6635 8.61467 76.6635 8.82C76.6635 9.1 76.5609 9.352 76.3555 9.576C76.1502 9.78133 75.9075 9.884 75.6275 9.884C75.4222 9.884 75.2075 9.856 74.9835 9.8C74.5355 9.744 74.2835 9.716 74.2275 9.716C73.4622 9.716 72.8835 9.89333 72.4915 10.248C72.1182 10.6027 71.9315 11.2467 71.9315 12.18V13.72H75.4315C75.7489 13.72 76.0102 13.8227 76.2155 14.028C76.4209 14.2333 76.5235 14.4947 76.5235 14.812C76.5235 15.1107 76.4209 15.372 76.2155 15.596C76.0102 15.8013 75.7489 15.904 75.4315 15.904H71.9315V26.88C71.9315 27.2347 71.8009 27.5333 71.5395 27.776C71.2969 28.0187 70.9982 28.14 70.6435 28.14ZM85.0655 28.28C82.3402 28.28 80.9775 27.048 80.9775 24.584V15.904H78.9895C78.8402 15.904 78.7095 15.8573 78.5975 15.764C78.5042 15.652 78.4575 15.5213 78.4575 15.372C78.4575 15.1853 78.5415 15.0267 78.7095 14.896L82.5175 11.172C82.6855 11.004 82.8442 10.92 82.9935 10.92C83.1428 10.92 83.2642 10.976 83.3575 11.088C83.4695 11.2 83.5255 11.3307 83.5255 11.48V13.72H86.6895C87.0068 13.72 87.2682 13.8227 87.4735 14.028C87.6788 14.2333 87.7815 14.4947 87.7815 14.812C87.7815 15.1107 87.6788 15.372 87.4735 15.596C87.2682 15.8013 87.0068 15.904 86.6895 15.904H83.5255V24.36C83.5255 25.088 83.6935 25.5547 84.0295 25.76C84.3842 25.9467 84.8228 26.04 85.3455 26.04C85.7188 26.04 86.0922 25.984 86.4655 25.872C86.5402 25.8533 86.6148 25.8347 86.6895 25.816C86.7828 25.7973 86.8948 25.788 87.0255 25.788C87.2868 25.788 87.5202 25.8907 87.7255 26.096C87.9308 26.2827 88.0335 26.516 88.0335 26.796C88.0335 27.2253 87.8188 27.552 87.3895 27.776C86.6615 28.112 85.8868 28.28 85.0655 28.28ZM93.4889 28.14C93.1342 28.14 92.8356 28.0187 92.5929 27.776C92.3502 27.5333 92.2289 27.2347 92.2289 26.88V8.708C92.2289 8.35333 92.3502 8.05467 92.5929 7.812C92.8356 7.55067 93.1342 7.42 93.4889 7.42C93.8622 7.42 94.1702 7.54133 94.4129 7.784C94.6556 8.02667 94.7769 8.33467 94.7769 8.708V26.88C94.7769 27.2347 94.6462 27.5333 94.3849 27.776C94.1422 28.0187 93.8436 28.14 93.4889 28.14ZM104.242 28.28C103.42 28.28 102.655 28.112 101.946 27.776C101.255 27.44 100.704 26.9547 100.294 26.32C99.8829 25.6667 99.6775 24.92 99.6775 24.08C99.6775 22.6987 100.219 21.5973 101.302 20.776C102.403 19.9547 104.008 19.544 106.118 19.544H109.506V19.32C109.506 18.088 109.198 17.2013 108.582 16.66C107.984 16.1187 107.042 15.848 105.754 15.848C105.044 15.848 104.41 15.904 103.85 16.016C103.308 16.128 102.702 16.296 102.03 16.52C101.88 16.5573 101.759 16.576 101.666 16.576C101.386 16.576 101.143 16.4733 100.938 16.268C100.732 16.0627 100.63 15.8107 100.63 15.512C100.63 15.008 100.872 14.6533 101.358 14.448C102.944 13.776 104.559 13.44 106.202 13.44C107.49 13.44 108.572 13.7013 109.45 14.224C110.346 14.7467 110.999 15.428 111.41 16.268C111.839 17.0893 112.054 17.9853 112.054 18.956V26.88C112.054 27.2347 111.923 27.5333 111.662 27.776C111.419 28.0187 111.12 28.14 110.766 28.14C110.411 28.14 110.112 28.0187 109.87 27.776C109.627 27.5333 109.506 27.2347 109.506 26.88V26.152C108.124 27.5707 106.37 28.28 104.242 28.28ZM105.194 26.04C106.015 26.04 106.808 25.844 107.574 25.452C108.339 25.0413 108.983 24.5373 109.506 23.94V21.588H106.454C103.635 21.588 102.226 22.3253 102.226 23.8C102.226 24.472 102.45 25.0133 102.898 25.424C103.364 25.8347 104.13 26.04 105.194 26.04ZM118.984 28.14C118.63 28.14 118.331 28.0187 118.088 27.776C117.846 27.5333 117.724 27.2347 117.724 26.88V14.868C117.724 14.5133 117.846 14.2147 118.088 13.972C118.331 13.7107 118.63 13.58 118.984 13.58C119.339 13.58 119.638 13.7107 119.88 13.972C120.142 14.2147 120.272 14.5133 120.272 14.868V16.016C120.982 15.232 121.747 14.6067 122.568 14.14C123.39 13.6733 124.36 13.44 125.48 13.44C126.507 13.44 127.394 13.6827 128.14 14.168C128.906 14.6533 129.484 15.316 129.876 16.156C130.287 16.996 130.492 17.92 130.492 18.928V26.88C130.492 27.2347 130.362 27.5333 130.1 27.776C129.858 28.0187 129.559 28.14 129.204 28.14C128.85 28.14 128.551 28.0187 128.308 27.776C128.066 27.5333 127.944 27.2347 127.944 26.88V19.208C127.944 16.9307 126.918 15.792 124.864 15.792C123.931 15.792 123.091 16.0347 122.344 16.52C121.616 17.0053 120.926 17.6587 120.272 18.48V26.88C120.272 27.2347 120.142 27.5333 119.88 27.776C119.638 28.0187 119.339 28.14 118.984 28.14ZM142.095 28.28C140.937 28.28 139.836 27.9907 138.791 27.412C137.764 26.8147 136.924 25.956 136.271 24.836C135.636 23.6973 135.319 22.372 135.319 20.86C135.319 19.348 135.636 18.032 136.271 16.912C136.924 15.7733 137.764 14.9147 138.791 14.336C139.836 13.7387 140.937 13.44 142.095 13.44C143.924 13.44 145.52 14.1493 146.883 15.568V8.708C146.883 8.33467 147.004 8.02667 147.247 7.784C147.508 7.54133 147.816 7.42 148.171 7.42C148.525 7.42 148.824 7.55067 149.067 7.812C149.309 8.05467 149.431 8.35333 149.431 8.708V26.88C149.431 27.2347 149.309 27.5333 149.067 27.776C148.824 28.0187 148.525 28.14 148.171 28.14C147.816 28.14 147.508 28.0187 147.247 27.776C147.004 27.5333 146.883 27.2347 146.883 26.88V26.152C145.52 27.5707 143.924 28.28 142.095 28.28ZM142.459 25.9C143.317 25.9 144.12 25.7133 144.867 25.34C145.632 24.948 146.304 24.4347 146.883 23.8V17.92C146.304 17.2853 145.632 16.7813 144.867 16.408C144.12 16.016 143.317 15.82 142.459 15.82C141.077 15.82 139.967 16.2587 139.127 17.136C138.287 18.0133 137.867 19.2547 137.867 20.86C137.867 22.4653 138.287 23.7067 139.127 24.584C139.967 25.4613 141.077 25.9 142.459 25.9ZM156.455 10.808C156.063 10.808 155.727 10.668 155.447 10.388C155.167 10.108 155.027 9.772 155.027 9.38V9.268C155.027 8.876 155.167 8.54 155.447 8.26C155.727 7.98 156.063 7.84 156.455 7.84H156.623C157.015 7.84 157.351 7.98 157.631 8.26C157.911 8.54 158.051 8.876 158.051 9.268V9.38C158.051 9.772 157.911 10.108 157.631 10.388C157.351 10.668 157.015 10.808 156.623 10.808H156.455ZM156.511 28.14C156.156 28.14 155.857 28.0187 155.615 27.776C155.372 27.5333 155.251 27.2347 155.251 26.88V14.868C155.251 14.5133 155.372 14.2147 155.615 13.972C155.857 13.7107 156.156 13.58 156.511 13.58C156.884 13.58 157.192 13.7013 157.435 13.944C157.677 14.1867 157.799 14.4947 157.799 14.868V26.88C157.799 27.2347 157.668 27.5333 157.407 27.776C157.164 28.0187 156.865 28.14 156.511 28.14ZM164.883 28.14C164.529 28.14 164.23 28.0187 163.987 27.776C163.745 27.5333 163.623 27.2347 163.623 26.88V14.868C163.623 14.5133 163.745 14.2147 163.987 13.972C164.23 13.7107 164.529 13.58 164.883 13.58C165.238 13.58 165.537 13.7107 165.779 13.972C166.041 14.2147 166.171 14.5133 166.171 14.868V16.016C166.881 15.232 167.646 14.6067 168.467 14.14C169.289 13.6733 170.259 13.44 171.379 13.44C172.406 13.44 173.293 13.6827 174.039 14.168C174.805 14.6533 175.383 15.316 175.775 16.156C176.186 16.996 176.391 17.92 176.391 18.928V26.88C176.391 27.2347 176.261 27.5333 175.999 27.776C175.757 28.0187 175.458 28.14 175.103 28.14C174.749 28.14 174.45 28.0187 174.207 27.776C173.965 27.5333 173.843 27.2347 173.843 26.88V19.208C173.843 16.9307 172.817 15.792 170.763 15.792C169.83 15.792 168.99 16.0347 168.243 16.52C167.515 17.0053 166.825 17.6587 166.171 18.48V26.88C166.171 27.2347 166.041 27.5333 165.779 27.776C165.537 28.0187 165.238 28.14 164.883 28.14ZM188.75 34.72C187.667 34.72 186.575 34.58 185.474 34.3C184.373 34.02 183.467 33.6747 182.758 33.264C182.422 33.0587 182.254 32.732 182.254 32.284C182.254 31.9853 182.357 31.7147 182.562 31.472C182.786 31.248 183.057 31.136 183.374 31.136C183.523 31.136 183.691 31.1733 183.878 31.248C185.297 31.9573 186.837 32.312 188.498 32.312C191.354 32.312 192.782 30.7907 192.782 27.748V25.872C191.457 27.2907 189.861 28 187.994 28C186.893 28 185.819 27.7293 184.774 27.188C183.747 26.628 182.898 25.8067 182.226 24.724C181.554 23.6227 181.218 22.288 181.218 20.72C181.218 19.152 181.554 17.8267 182.226 16.744C182.898 15.6427 183.747 14.8213 184.774 14.28C185.819 13.72 186.893 13.44 187.994 13.44C189.861 13.44 191.457 14.1493 192.782 15.568V14.868C192.782 14.5133 192.903 14.2147 193.146 13.972C193.389 13.7107 193.687 13.58 194.042 13.58C194.397 13.58 194.695 13.7107 194.938 13.972C195.199 14.2147 195.33 14.5133 195.33 14.868V27.384C195.33 29.736 194.761 31.5467 193.622 32.816C192.483 34.0853 190.859 34.72 188.75 34.72ZM188.526 25.676C189.403 25.676 190.178 25.4893 190.85 25.116C191.522 24.7427 192.166 24.2387 192.782 23.604V17.836C192.166 17.2013 191.522 16.6973 190.85 16.324C190.178 15.9507 189.403 15.764 188.526 15.764C187.126 15.764 185.978 16.1933 185.082 17.052C184.205 17.892 183.766 19.1147 183.766 20.72C183.766 22.3253 184.205 23.5573 185.082 24.416C185.978 25.256 187.126 25.676 188.526 25.676Z" fill="white"/>
<path d="M50.5765 27.776L51.2836 27.0689L51.2836 27.0689L50.5765 27.776ZM50.5765 13.972L51.2836 14.6791L51.2967 14.666L51.3093 14.6524L50.5765 13.972ZM52.3685 13.972L51.6357 14.6524L51.6609 14.6796L51.688 14.7048L52.3685 13.972ZM52.7605 16.016H51.7605V18.6118L53.502 16.6869L52.7605 16.016ZM55.0565 14.14L55.5505 15.0095L55.0565 14.14ZM60.6285 14.168L60.0835 15.0065L60.0929 15.0125L60.6285 14.168ZM62.3645 16.156L61.4583 16.5789L61.4621 16.5871L61.4661 16.5952L62.3645 16.156ZM62.5885 27.776L61.908 27.0432L61.8945 27.0558L61.8814 27.0689L62.5885 27.776ZM60.7965 27.776L60.0894 28.4831L60.0894 28.4831L60.7965 27.776ZM54.8325 16.52L54.2875 15.6815L54.2778 15.6879L54.8325 16.52ZM52.7605 18.48L51.9779 17.8575L51.7605 18.1308V18.48H52.7605ZM52.3685 27.776L51.688 27.0432L51.6745 27.0558L51.6614 27.0689L52.3685 27.776ZM51.4725 27.14C51.3731 27.14 51.3318 27.1171 51.2836 27.0689L49.8694 28.4831C50.3065 28.9202 50.8625 29.14 51.4725 29.14V27.14ZM51.2836 27.0689C51.2354 27.0207 51.2125 26.9794 51.2125 26.88H49.2125C49.2125 27.49 49.4323 28.046 49.8694 28.4831L51.2836 27.0689ZM51.2125 26.88V14.868H49.2125V26.88H51.2125ZM51.2125 14.868C51.2125 14.7686 51.2354 14.7273 51.2836 14.6791L49.8694 13.2649C49.4323 13.702 49.2125 14.258 49.2125 14.868H51.2125ZM51.3093 14.6524C51.3639 14.5936 51.3976 14.58 51.4725 14.58V12.58C50.838 12.58 50.2744 12.8277 49.8437 13.2915L51.3093 14.6524ZM51.4725 14.58C51.5473 14.58 51.581 14.5936 51.6357 14.6524L53.1013 13.2915C52.6706 12.8277 52.107 12.58 51.4725 12.58V14.58ZM51.688 14.7048C51.7469 14.7594 51.7605 14.7931 51.7605 14.868H53.7605C53.7605 14.2335 53.5128 13.6699 53.0489 13.2392L51.688 14.7048ZM51.7605 14.868V16.016H53.7605V14.868H51.7605ZM53.502 16.6869C54.1484 15.9725 54.832 15.4177 55.5505 15.0095L54.5625 13.2705C53.6383 13.7957 52.7913 14.4915 52.019 15.3451L53.502 16.6869ZM55.5505 15.0095C56.1955 14.643 56.9894 14.44 57.9685 14.44V12.44C56.7075 12.44 55.5602 12.7037 54.5625 13.2705L55.5505 15.0095ZM57.9685 14.44C58.832 14.44 59.5227 14.6419 60.0835 15.0064L61.1735 13.3296C60.2409 12.7234 59.1583 12.44 57.9685 12.44V14.44ZM60.0929 15.0125C60.6932 15.3931 61.1451 15.9077 61.4583 16.5789L63.2707 15.7331C62.7999 14.7243 62.0945 13.9135 61.164 13.3235L60.0929 15.0125ZM61.4661 16.5952C61.8048 17.288 61.9805 18.0601 61.9805 18.928H63.9805C63.9805 17.7799 63.7455 16.704 63.2629 15.7168L61.4661 16.5952ZM61.9805 18.928V26.88H63.9805V18.928H61.9805ZM61.9805 26.88C61.9805 26.9549 61.9669 26.9886 61.908 27.0432L63.2689 28.5088C63.7328 28.0781 63.9805 27.5145 63.9805 26.88H61.9805ZM61.8814 27.0689C61.8332 27.1171 61.7919 27.14 61.6925 27.14V29.14C62.3025 29.14 62.8585 28.9202 63.2956 28.4831L61.8814 27.0689ZM61.6925 27.14C61.5931 27.14 61.5518 27.1171 61.5036 27.0689L60.0894 28.4831C60.5265 28.9202 61.0825 29.14 61.6925 29.14V27.14ZM61.5036 27.0689C61.4554 27.0207 61.4325 26.9794 61.4325 26.88H59.4325C59.4325 27.49 59.6523 28.046 60.0894 28.4831L61.5036 27.0689ZM61.4325 26.88V19.208H59.4325V26.88H61.4325ZM61.4325 19.208C61.4325 17.9393 61.1487 16.801 60.4052 15.9764C59.6439 15.132 58.5616 14.792 57.3525 14.792V16.792C58.1967 16.792 58.6544 17.0213 58.9198 17.3156C59.2029 17.6296 59.4325 18.1994 59.4325 19.208H61.4325ZM57.3525 14.792C56.2355 14.792 55.2044 15.0856 54.2875 15.6816L55.3775 17.3584C55.9539 16.9838 56.6028 16.792 57.3525 16.792V14.792ZM54.2778 15.6879C53.4482 16.241 52.6834 16.9706 51.9779 17.8575L53.5431 19.1025C54.1443 18.3468 54.7608 17.7696 55.3872 17.352L54.2778 15.6879ZM51.7605 18.48V26.88H53.7605V18.48H51.7605ZM51.7605 26.88C51.7605 26.9549 51.7469 26.9886 51.688 27.0432L53.0489 28.5088C53.5128 28.0781 53.7605 27.5145 53.7605 26.88H51.7605ZM51.6614 27.0689C51.6132 27.1171 51.5719 27.14 51.4725 27.14V29.14C52.0825 29.14 52.6385 28.9202 53.0756 28.4831L51.6614 27.0689ZM69.7475 27.776L70.4546 27.0689L70.4546 27.0689L69.7475 27.776ZM69.3835 15.904H70.3835V14.904H69.3835V15.904ZM66.9475 15.596L66.2104 16.2717L66.2397 16.3038L66.2718 16.3332L66.9475 15.596ZM66.9475 14.028L66.2718 13.2908L66.2558 13.3055L66.2404 13.3209L66.9475 14.028ZM69.3835 13.72V14.72H70.3835V13.72H69.3835ZM69.9715 9.352L69.1005 8.86066L69.0963 8.86831L69.9715 9.352ZM71.5395 7.784L71.9868 8.67848L71.9969 8.67329L71.5395 7.784ZM76.0195 7.84L75.5723 8.73443L75.5723 8.73443L76.0195 7.84ZM76.4675 8.26L75.61 8.77449L75.6411 8.82627L75.6782 8.87394L76.4675 8.26ZM76.3555 9.576L77.0626 10.2831L77.078 10.2677L77.0927 10.2517L76.3555 9.576ZM74.9835 9.8L75.2261 8.82986L75.1675 8.81521L75.1076 8.80772L74.9835 9.8ZM72.4915 10.248L71.8206 9.50647L71.8116 9.51462L71.8028 9.523L72.4915 10.248ZM71.9315 13.72H70.9315V14.72H71.9315V13.72ZM76.2155 14.028L75.5084 14.7351L75.5084 14.7351L76.2155 14.028ZM76.2155 15.596L76.9226 16.3031L76.938 16.2877L76.9527 16.2717L76.2155 15.596ZM71.9315 15.904V14.904H70.9315V15.904H71.9315ZM71.5395 27.776L70.8591 27.0432L70.8455 27.0558L70.8324 27.0689L71.5395 27.776ZM70.6435 27.14C70.5442 27.14 70.5029 27.1171 70.4546 27.0689L69.0404 28.4831C69.4775 28.9202 70.0336 29.14 70.6435 29.14V27.14ZM70.4546 27.0689C70.4064 27.0207 70.3835 26.9794 70.3835 26.88H68.3835C68.3835 27.49 68.6033 28.046 69.0404 28.4831L70.4546 27.0689ZM70.3835 26.88V15.904H68.3835V26.88H70.3835ZM69.3835 14.904H67.7315V16.904H69.3835V14.904ZM67.7315 14.904C67.6878 14.904 67.6664 14.8984 67.6232 14.8588L66.2718 16.3332C66.6767 16.7043 67.1779 16.904 67.7315 16.904V14.904ZM67.6847 14.9203C67.6451 14.8771 67.6395 14.8557 67.6395 14.812H65.6395C65.6395 15.3656 65.8392 15.8669 66.2104 16.2717L67.6847 14.9203ZM67.6395 14.812C67.6395 14.7623 67.6473 14.7437 67.6473 14.7437C67.6475 14.7431 67.6476 14.743 67.6475 14.7432C67.6474 14.7434 67.6473 14.7435 67.6474 14.7433C67.6475 14.7432 67.6479 14.7426 67.6489 14.7413C67.6499 14.7401 67.6518 14.738 67.6546 14.7351L66.2404 13.3209C65.8292 13.7321 65.6395 14.2565 65.6395 14.812H67.6395ZM67.6232 14.7652C67.6664 14.7256 67.6878 14.72 67.7315 14.72V12.72C67.1779 12.72 66.6767 12.9197 66.2718 13.2908L67.6232 14.7652ZM67.7315 14.72H69.3835V12.72H67.7315V14.72ZM70.3835 13.72V12.096H68.3835V13.72H70.3835ZM70.3835 12.096C70.3835 11.0837 70.5619 10.3511 70.8468 9.83569L69.0963 8.86831C68.5971 9.77154 68.3835 10.8683 68.3835 12.096H70.3835ZM70.8425 9.84332C71.173 9.25735 71.5602 8.89169 71.9867 8.67843L71.0923 6.88957C70.2495 7.31098 69.5913 7.99065 69.1005 8.86068L70.8425 9.84332ZM71.9969 8.67329C72.514 8.40736 73.039 8.28 73.5835 8.28V6.28C72.7093 6.28 71.8718 6.48864 71.0822 6.89471L71.9969 8.67329ZM73.5835 8.28C74.3137 8.28 74.9716 8.43407 75.5723 8.73443L76.4667 6.94557C75.5741 6.49926 74.608 6.28 73.5835 6.28V8.28ZM75.5723 8.73443C75.5813 8.73893 75.5914 8.74352 75.61 8.77449L77.325 7.7455C77.1196 7.40314 76.831 7.12773 76.4667 6.94557L75.5723 8.73443ZM75.6782 8.87394C75.682 8.87892 75.6764 8.87281 75.6707 8.85635C75.668 8.84876 75.6661 8.84106 75.6649 8.8339C75.6637 8.82679 75.6635 8.82191 75.6635 8.82H77.6635C77.6635 8.38369 77.5187 7.98268 77.2569 7.64606L75.6782 8.87394ZM75.6635 8.82C75.6635 8.83447 75.6615 8.839 75.6604 8.8417C75.6588 8.84574 75.6501 8.8656 75.6184 8.90027L77.0927 10.2517C77.4514 9.86041 77.6635 9.37247 77.6635 8.82H75.6635ZM75.6484 8.86889C75.6374 8.87995 75.6304 8.88507 75.628 8.88671C75.6258 8.88823 75.6265 8.88745 75.6299 8.88603C75.6333 8.88459 75.6363 8.88379 75.6378 8.8835C75.6391 8.88324 75.6361 8.884 75.6275 8.884V10.884C76.1835 10.884 76.6775 10.6682 77.0626 10.2831L75.6484 8.86889ZM75.6275 8.884C75.5134 8.884 75.3804 8.86845 75.2261 8.82986L74.741 10.7701C75.0346 10.8436 75.331 10.884 75.6275 10.884V8.884ZM75.1076 8.80772C74.8819 8.77952 74.7017 8.75786 74.569 8.74311C74.4681 8.73191 74.3245 8.716 74.2275 8.716V10.716C74.1896 10.716 74.1725 10.7132 74.2157 10.7171C74.2448 10.7198 74.2881 10.7242 74.3481 10.7309C74.4674 10.7441 74.6371 10.7645 74.8595 10.7923L75.1076 8.80772ZM74.2275 8.716C73.3239 8.716 72.4641 8.92421 71.8206 9.50647L73.1624 10.9895C73.3029 10.8625 73.6005 10.716 74.2275 10.716V8.716ZM71.8028 9.523C71.1199 10.1718 70.9315 11.1768 70.9315 12.18H72.9315C72.9315 11.3165 73.1165 11.0336 73.1803 10.973L71.8028 9.523ZM70.9315 12.18V13.72H72.9315V12.18H70.9315ZM71.9315 14.72H75.4315V12.72H71.9315V14.72ZM75.4315 14.72C75.4812 14.72 75.4998 14.7277 75.4999 14.7278C75.5004 14.728 75.5005 14.728 75.5003 14.7279C75.5001 14.7278 75.5001 14.7278 75.5002 14.7279C75.5003 14.7279 75.501 14.7284 75.5022 14.7294C75.5035 14.7304 75.5055 14.7322 75.5084 14.7351L76.9226 13.3209C76.5114 12.9097 75.987 12.72 75.4315 12.72V14.72ZM75.5084 14.7351C75.5113 14.738 75.5131 14.7401 75.5141 14.7413C75.5151 14.7426 75.5156 14.7432 75.5157 14.7433C75.5157 14.7435 75.5157 14.7434 75.5156 14.7432C75.5155 14.743 75.5156 14.7431 75.5158 14.7437C75.5158 14.7437 75.5235 14.7623 75.5235 14.812H77.5235C77.5235 14.2565 77.3338 13.7321 76.9226 13.3209L75.5084 14.7351ZM75.5235 14.812C75.5235 14.8557 75.5179 14.8771 75.4784 14.9203L76.9527 16.2717C77.3238 15.8669 77.5235 15.3656 77.5235 14.812H75.5235ZM75.5084 14.8889C75.5055 14.8918 75.5035 14.8936 75.5022 14.8946C75.501 14.8956 75.5003 14.8961 75.5002 14.8961C75.5001 14.8962 75.5001 14.8962 75.5003 14.8961C75.5005 14.896 75.5004 14.896 75.4999 14.8962C75.4999 14.8963 75.4812 14.904 75.4315 14.904V16.904C75.987 16.904 76.5114 16.7143 76.9226 16.3031L75.5084 14.8889ZM75.4315 14.904H71.9315V16.904H75.4315V14.904ZM70.9315 15.904V26.88H72.9315V15.904H70.9315ZM70.9315 26.88C70.9315 26.9549 70.9179 26.9886 70.8591 27.0432L72.22 28.5088C72.6838 28.0781 72.9315 27.5145 72.9315 26.88H70.9315ZM70.8324 27.0689C70.7842 27.1171 70.7429 27.14 70.6435 27.14V29.14C71.2535 29.14 71.8095 28.9202 72.2466 28.4831L70.8324 27.0689ZM80.9775 15.904H81.9775V14.904H80.9775V15.904ZM78.5975 15.764L77.8293 16.4042L77.8875 16.474L77.9573 16.5322L78.5975 15.764ZM78.7095 14.896L79.3234 15.6854L79.3682 15.6506L79.4087 15.6109L78.7095 14.896ZM82.5175 11.172L83.2167 11.887L83.2246 11.8791L82.5175 11.172ZM83.3575 11.088L82.5893 11.7282L82.6183 11.763L82.6504 11.7951L83.3575 11.088ZM83.5255 13.72H82.5255V14.72H83.5255V13.72ZM87.4735 14.028L86.7664 14.7351L86.7664 14.7351L87.4735 14.028ZM87.4735 15.596L88.1806 16.3031L88.196 16.2877L88.2106 16.2717L87.4735 15.596ZM83.5255 15.904V14.904H82.5255V15.904H83.5255ZM84.0295 25.76L83.508 26.6133L83.5354 26.63L83.5637 26.6449L84.0295 25.76ZM86.4655 25.872L86.223 24.9019L86.2004 24.9075L86.1781 24.9142L86.4655 25.872ZM86.6895 25.816L86.4934 24.8354L86.47 24.8401L86.447 24.8459L86.6895 25.816ZM87.7255 26.096L87.0184 26.8031L87.0352 26.8199L87.0528 26.8359L87.7255 26.096ZM87.3895 27.776L87.8085 28.684L87.8306 28.6738L87.8521 28.6626L87.3895 27.776ZM85.0655 27.28C83.8335 27.28 83.0961 26.9994 82.6701 26.6142C82.2633 26.2464 81.9775 25.6344 81.9775 24.584H79.9775C79.9775 25.9976 80.373 27.2336 81.3288 28.0978C82.2655 28.9446 83.5722 29.28 85.0655 29.28V27.28ZM81.9775 24.584V15.904H79.9775V24.584H81.9775ZM80.9775 14.904H78.9895V16.904H80.9775V14.904ZM78.9895 14.904C79.0207 14.904 79.0653 14.9092 79.1158 14.9273C79.1667 14.9454 79.208 14.9711 79.2377 14.9958L77.9573 16.5322C78.2537 16.7792 78.6124 16.904 78.9895 16.904V14.904ZM79.3657 15.1238C79.3904 15.1535 79.4161 15.1948 79.4342 15.2457C79.4523 15.2962 79.4575 15.3408 79.4575 15.372H77.4575C77.4575 15.7491 77.5822 16.1078 77.8293 16.4042L79.3657 15.1238ZM79.4575 15.372C79.4575 15.4351 79.4417 15.5102 79.4043 15.5809C79.369 15.6476 79.3307 15.6797 79.3234 15.6854L78.0955 14.1066C77.7227 14.3966 77.4575 14.8308 77.4575 15.372H79.4575ZM79.4087 15.6109L83.2167 11.8869L81.8183 10.4571L78.0103 14.1811L79.4087 15.6109ZM83.2246 11.8791C83.2594 11.8443 83.2623 11.8499 83.2304 11.8668C83.1945 11.8858 83.1118 11.92 82.9935 11.92V9.92C82.4586 9.92 82.059 10.2163 81.8104 10.4649L83.2246 11.8791ZM82.9935 11.92C82.9406 11.92 82.8628 11.9094 82.7774 11.87C82.6914 11.8302 82.6289 11.7757 82.5893 11.7282L84.1257 10.4478C83.8371 10.1015 83.4313 9.92 82.9935 9.92V11.92ZM82.6504 11.7951C82.6267 11.7714 82.5919 11.7281 82.5643 11.6639C82.5363 11.5985 82.5255 11.5338 82.5255 11.48H84.5255C84.5255 11.0481 84.3515 10.6678 84.0646 10.3809L82.6504 11.7951ZM82.5255 11.48V13.72H84.5255V11.48H82.5255ZM83.5255 14.72H86.6895V12.72H83.5255V14.72ZM86.6895 14.72C86.7392 14.72 86.7578 14.7277 86.7578 14.7277C86.7584 14.728 86.7585 14.728 86.7583 14.7279C86.7581 14.7278 86.758 14.7278 86.7581 14.7279C86.7583 14.7279 86.7589 14.7284 86.7602 14.7294C86.7614 14.7304 86.7635 14.7322 86.7664 14.7351L88.1806 13.3209C87.7694 12.9097 87.2449 12.72 86.6895 12.72V14.72ZM86.7664 14.7351C86.7693 14.738 86.7711 14.7401 86.7721 14.7413C86.7731 14.7426 86.7735 14.7432 86.7736 14.7433C86.7737 14.7435 86.7736 14.7434 86.7735 14.7432C86.7735 14.743 86.7735 14.7431 86.7737 14.7437C86.7737 14.7437 86.7815 14.7623 86.7815 14.812H88.7815C88.7815 14.2565 88.5918 13.7321 88.1806 13.3209L86.7664 14.7351ZM86.7815 14.812C86.7815 14.8557 86.7759 14.8771 86.7363 14.9203L88.2106 16.2717C88.5818 15.8669 88.7815 15.3656 88.7815 14.812H86.7815ZM86.7664 14.8889C86.7635 14.8918 86.7614 14.8936 86.7602 14.8946C86.7589 14.8956 86.7583 14.8961 86.7581 14.8961C86.758 14.8962 86.7581 14.8962 86.7583 14.8961C86.7585 14.896 86.7584 14.896 86.7578 14.8962C86.7578 14.8963 86.7392 14.904 86.6895 14.904V16.904C87.2449 16.904 87.7694 16.7143 88.1806 16.3031L86.7664 14.8889ZM86.6895 14.904H83.5255V16.904H86.6895V14.904ZM82.5255 15.904V24.36H84.5255V15.904H82.5255ZM82.5255 24.36C82.5255 25.1471 82.6916 26.1144 83.508 26.6133L84.5509 24.9067C84.6232 24.9509 84.6197 24.9931 84.5924 24.9173C84.5612 24.8307 84.5255 24.6575 84.5255 24.36H82.5255ZM83.5637 26.6449C84.099 26.9266 84.7083 27.04 85.3455 27.04V25.04C84.9374 25.04 84.6693 24.9667 84.4952 24.8751L83.5637 26.6449ZM85.3455 27.04C85.8204 27.04 86.2904 26.9686 86.7528 26.8298L86.1781 24.9142C85.8939 24.9994 85.6173 25.04 85.3455 25.04V27.04ZM86.708 26.8421C86.7827 26.8235 86.8574 26.8048 86.932 26.7861L86.447 24.8459C86.3723 24.8645 86.2976 24.8832 86.223 24.9019L86.708 26.8421ZM86.8856 26.7966C86.8955 26.7946 86.9382 26.788 87.0255 26.788V24.788C86.8514 24.788 86.6701 24.8001 86.4934 24.8354L86.8856 26.7966ZM87.0255 26.788C87.0249 26.788 87.0203 26.7879 87.013 26.7864C87.0057 26.7849 86.9989 26.7826 86.9937 26.7803C86.9887 26.7781 86.988 26.7771 86.9916 26.7797C86.9954 26.7823 87.0045 26.7893 87.0184 26.8031L88.4326 25.3889C88.0626 25.0189 87.5827 24.788 87.0255 24.788V26.788ZM87.0528 26.8359C87.0579 26.8406 87.0573 26.8409 87.0538 26.8361C87.0502 26.8312 87.0455 26.8235 87.0412 26.8137C87.0369 26.804 87.0347 26.7958 87.0337 26.7909C87.0327 26.7862 87.0335 26.7873 87.0335 26.796H89.0335C89.0335 26.2372 88.8141 25.7342 88.3982 25.3561L87.0528 26.8359ZM87.0335 26.796C87.0335 26.8194 87.0307 26.8278 87.0313 26.8256C87.0321 26.8227 87.0343 26.8177 87.0368 26.8138C87.0429 26.8045 87.0261 26.8376 86.9269 26.8894L87.8521 28.6626C88.1822 28.4904 88.4874 28.2481 88.7082 27.9122C88.9332 27.5698 89.0335 27.1859 89.0335 26.796H87.0335ZM86.9704 26.868C86.3771 27.1419 85.7458 27.28 85.0655 27.28V29.28C86.0279 29.28 86.9459 29.0821 87.8085 28.684L86.9704 26.868ZM92.5929 27.776L93.3 27.0689L93.3 27.0689L92.5929 27.776ZM92.5929 7.812L93.3 8.51911L93.3131 8.50602L93.3257 8.49245L92.5929 7.812ZM94.4129 7.784L95.12 7.07689L95.12 7.07689L94.4129 7.784ZM94.3849 27.776L93.7044 27.0432L93.6909 27.0558L93.6778 27.0689L94.3849 27.776ZM93.4889 27.14C93.3895 27.14 93.3482 27.1171 93.3 27.0689L91.8858 28.4831C92.3229 28.9202 92.8789 29.14 93.4889 29.14V27.14ZM93.3 27.0689C93.2518 27.0207 93.2289 26.9794 93.2289 26.88H91.2289C91.2289 27.49 91.4487 28.046 91.8858 28.4831L93.3 27.0689ZM93.2289 26.88V8.708H91.2289V26.88H93.2289ZM93.2289 8.708C93.2289 8.60863 93.2518 8.56734 93.3 8.51911L91.8858 7.10489C91.4487 7.54199 91.2289 8.09803 91.2289 8.708H93.2289ZM93.3257 8.49245C93.3803 8.4336 93.414 8.42 93.4889 8.42V6.42C92.8544 6.42 92.2908 6.66773 91.8601 7.13155L93.3257 8.49245ZM93.4889 8.42C93.6227 8.42 93.6681 8.45339 93.7058 8.49111L95.12 7.07689C94.6724 6.62928 94.1018 6.42 93.4889 6.42V8.42ZM93.7058 8.4911C93.7435 8.52882 93.7769 8.5742 93.7769 8.708H95.7769C95.7769 8.09513 95.5676 7.52451 95.12 7.07689L93.7058 8.4911ZM93.7769 8.708V26.88H95.7769V8.708H93.7769ZM93.7769 26.88C93.7769 26.9549 93.7633 26.9886 93.7044 27.0432L95.0653 28.5088C95.5292 28.0781 95.7769 27.5145 95.7769 26.88H93.7769ZM93.6778 27.0689C93.6296 27.1171 93.5883 27.14 93.4889 27.14V29.14C94.0989 29.14 94.6549 28.9202 95.092 28.4831L93.6778 27.0689ZM101.946 27.776L101.508 28.6753L101.517 28.6797L101.946 27.776ZM100.294 26.32L99.4468 26.8522L99.454 26.8633L100.294 26.32ZM101.302 20.776L100.704 19.9743L100.697 19.9793L101.302 20.776ZM109.506 19.544V20.544H110.506V19.544H109.506ZM108.582 16.66L107.91 17.401L107.916 17.4061L107.921 17.4112L108.582 16.66ZM103.85 16.016L103.653 15.0354L103.647 15.0367L103.85 16.016ZM102.03 16.52L102.272 17.4901L102.309 17.4808L102.346 17.4687L102.03 16.52ZM100.938 16.268L101.645 15.5609L101.645 15.5609L100.938 16.268ZM101.358 14.448L101.747 15.369L101.748 15.3688L101.358 14.448ZM109.45 14.224L108.938 15.0831L108.946 15.0878L109.45 14.224ZM111.41 16.268L110.511 16.7072L110.517 16.7193L110.523 16.7313L111.41 16.268ZM111.662 27.776L110.981 27.0432L110.968 27.0558L110.954 27.0689L111.662 27.776ZM109.87 27.776L110.577 27.0689L110.577 27.0689L109.87 27.776ZM109.506 26.152H110.506V23.6915L108.789 25.4544L109.506 26.152ZM107.574 25.452L108.029 26.342L108.038 26.3377L108.046 26.3332L107.574 25.452ZM109.506 23.94L110.258 24.5985L110.506 24.3157V23.94H109.506ZM109.506 21.588H110.506V20.588H109.506V21.588ZM102.898 25.424L102.222 26.1612L102.229 26.168L102.237 26.1747L102.898 25.424ZM104.242 27.28C103.561 27.28 102.943 27.1419 102.374 26.8723L101.517 28.6797C102.367 29.0821 103.279 29.28 104.242 29.28V27.28ZM102.383 26.8768C101.854 26.6192 101.443 26.2557 101.133 25.7767L99.454 26.8633C99.9654 27.6536 100.656 28.2608 101.508 28.6752L102.383 26.8768ZM101.14 25.7878C100.839 25.308 100.678 24.749 100.678 24.08H98.6775C98.6775 25.091 98.9272 26.0254 99.4469 26.8522L101.14 25.7878ZM100.678 24.08C100.678 23.0054 101.077 22.2013 101.906 21.5727L100.697 19.9793C99.3605 20.9933 98.6775 22.3919 98.6775 24.08H100.678ZM101.899 21.5776C102.758 20.9376 104.115 20.544 106.118 20.544V18.544C103.901 18.544 102.048 18.9717 100.704 19.9744L101.899 21.5776ZM106.118 20.544H109.506V18.544H106.118V20.544ZM110.506 19.544V19.32H108.506V19.544H110.506ZM110.506 19.32C110.506 17.946 110.163 16.7187 109.242 15.9088L107.921 17.4112C108.232 17.684 108.506 18.23 108.506 19.32H110.506ZM109.253 15.919C108.389 15.1359 107.149 14.848 105.754 14.848V16.848C106.934 16.848 107.579 17.1014 107.91 17.401L109.253 15.919ZM105.754 14.848C104.993 14.848 104.291 14.9078 103.653 15.0354L104.046 16.9966C104.528 16.9002 105.095 16.848 105.754 16.848V14.848ZM103.647 15.0367C103.058 15.1585 102.413 15.3382 101.713 15.5713L102.346 17.4687C102.99 17.2538 103.558 17.0975 104.052 16.9953L103.647 15.0367ZM101.787 15.5499C101.735 15.5628 101.698 15.57 101.674 15.5736C101.649 15.5775 101.648 15.576 101.666 15.576V17.576C101.876 17.576 102.088 17.5363 102.272 17.4901L101.787 15.5499ZM101.666 15.576C101.657 15.576 101.654 15.5752 101.655 15.5755C101.657 15.5758 101.66 15.5766 101.663 15.578C101.667 15.5794 101.667 15.5802 101.665 15.5787C101.663 15.5771 101.656 15.572 101.645 15.5609L100.23 16.9751C100.616 17.3602 101.11 17.576 101.666 17.576V15.576ZM101.645 15.5609C101.636 15.5526 101.633 15.5477 101.632 15.5466C101.632 15.5457 101.632 15.5463 101.633 15.5477C101.633 15.5491 101.633 15.5483 101.632 15.544C101.631 15.5394 101.63 15.5292 101.63 15.512H99.6295C99.6295 16.0674 99.8317 16.5763 100.23 16.9751L101.645 15.5609ZM101.63 15.512C101.63 15.4662 101.635 15.4422 101.637 15.434C101.639 15.427 101.64 15.4285 101.637 15.4327C101.628 15.4458 101.641 15.414 101.747 15.369L100.968 13.527C100.589 13.6874 100.238 13.9355 99.9862 14.3033C99.7325 14.6742 99.6295 15.0942 99.6295 15.512H101.63ZM101.748 15.3688C103.217 14.7465 104.699 14.44 106.202 14.44V12.44C104.418 12.44 102.671 12.8055 100.968 13.5272L101.748 15.3688ZM106.202 14.44C107.356 14.44 108.251 14.6739 108.938 15.0831L109.961 13.3649C108.894 12.7288 107.623 12.44 106.202 12.44V14.44ZM108.946 15.0878C109.691 15.5223 110.197 16.0637 110.511 16.7072L112.308 15.8288C111.801 14.7923 111.001 13.9711 109.953 13.3602L108.946 15.0878ZM110.523 16.7313C110.874 17.4028 111.054 18.1388 111.054 18.956H113.054C113.054 17.8319 112.803 16.7759 112.296 15.8047L110.523 16.7313ZM111.054 18.956V26.88H113.054V18.956H111.054ZM111.054 26.88C111.054 26.9549 111.04 26.9886 110.981 27.0432L112.342 28.5088C112.806 28.0781 113.054 27.5145 113.054 26.88H111.054ZM110.954 27.0689C110.906 27.1171 110.865 27.14 110.766 27.14V29.14C111.376 29.14 111.932 28.9202 112.369 28.4831L110.954 27.0689ZM110.766 27.14C110.666 27.14 110.625 27.1171 110.577 27.0689L109.162 28.4831C109.6 28.9202 110.156 29.14 110.766 29.14V27.14ZM110.577 27.0689C110.528 27.0207 110.506 26.9794 110.506 26.88H108.506C108.506 27.49 108.725 28.046 109.162 28.4831L110.577 27.0689ZM110.506 26.88V26.152H108.506V26.88H110.506ZM108.789 25.4544C107.611 26.6642 106.122 27.28 104.242 27.28V29.28C106.617 29.28 108.637 28.4771 110.222 26.8496L108.789 25.4544ZM105.194 27.04C106.181 27.04 107.13 26.8028 108.029 26.342L107.118 24.562C106.487 24.8852 105.849 25.04 105.194 25.04V27.04ZM108.046 26.3332C108.908 25.871 109.649 25.2944 110.258 24.5985L108.753 23.2815C108.317 23.7803 107.77 24.2116 107.101 24.5708L108.046 26.3332ZM110.506 23.94V21.588H108.506V23.94H110.506ZM109.506 20.588H106.454V22.588H109.506V20.588ZM106.454 20.588C104.99 20.588 103.738 20.774 102.819 21.2549C102.345 21.5031 101.935 21.8425 101.646 22.2949C101.356 22.7514 101.226 23.2654 101.226 23.8H103.226C103.226 23.5973 103.272 23.4661 103.333 23.3696C103.397 23.269 103.516 23.1476 103.746 23.0271C104.236 22.7707 105.099 22.588 106.454 22.588V20.588ZM101.226 23.8C101.226 24.7193 101.544 25.5399 102.222 26.1612L103.573 24.6868C103.355 24.4868 103.226 24.2247 103.226 23.8H101.226ZM102.237 26.1747C102.978 26.8267 104.045 27.04 105.194 27.04V25.04C104.214 25.04 103.751 24.8427 103.558 24.6733L102.237 26.1747ZM118.088 27.776L118.795 27.0689L118.795 27.0689L118.088 27.776ZM118.088 13.972L118.795 14.6791L118.808 14.666L118.821 14.6524L118.088 13.972ZM119.88 13.972L119.147 14.6524L119.173 14.6796L119.2 14.7048L119.88 13.972ZM120.272 16.016H119.272V18.6118L121.014 16.6869L120.272 16.016ZM122.568 14.14L123.062 15.0095L122.568 14.14ZM128.14 14.168L127.595 15.0065L127.605 15.0125L128.14 14.168ZM129.876 16.156L128.97 16.5789L128.974 16.5871L128.978 16.5952L129.876 16.156ZM130.1 27.776L129.42 27.0432L129.406 27.0558L129.393 27.0689L130.1 27.776ZM128.308 27.776L127.601 28.4831L127.601 28.4831L128.308 27.776ZM122.344 16.52L121.799 15.6815L121.79 15.6879L122.344 16.52ZM120.272 18.48L119.49 17.8575L119.272 18.1308V18.48H120.272ZM119.88 27.776L119.2 27.0432L119.186 27.0558L119.173 27.0689L119.88 27.776ZM118.984 27.14C118.885 27.14 118.844 27.1171 118.795 27.0689L117.381 28.4831C117.818 28.9202 118.374 29.14 118.984 29.14V27.14ZM118.795 27.0689C118.747 27.0207 118.724 26.9794 118.724 26.88H116.724C116.724 27.49 116.944 28.046 117.381 28.4831L118.795 27.0689ZM118.724 26.88V14.868H116.724V26.88H118.724ZM118.724 14.868C118.724 14.7686 118.747 14.7273 118.795 14.6791L117.381 13.2649C116.944 13.702 116.724 14.258 116.724 14.868H118.724ZM118.821 14.6524C118.876 14.5936 118.909 14.58 118.984 14.58V12.58C118.35 12.58 117.786 12.8277 117.355 13.2915L118.821 14.6524ZM118.984 14.58C119.059 14.58 119.093 14.5936 119.147 14.6524L120.613 13.2915C120.182 12.8277 119.619 12.58 118.984 12.58V14.58ZM119.2 14.7048C119.259 14.7594 119.272 14.7931 119.272 14.868H121.272C121.272 14.2335 121.024 13.6699 120.561 13.2392L119.2 14.7048ZM119.272 14.868V16.016H121.272V14.868H119.272ZM121.014 16.6869C121.66 15.9725 122.344 15.4177 123.062 15.0095L122.074 13.2705C121.15 13.7957 120.303 14.4915 119.531 15.3451L121.014 16.6869ZM123.062 15.0095C123.707 14.643 124.501 14.44 125.48 14.44V12.44C124.219 12.44 123.072 12.7037 122.074 13.2705L123.062 15.0095ZM125.48 14.44C126.344 14.44 127.034 14.6419 127.595 15.0064L128.685 13.3296C127.753 12.7234 126.67 12.44 125.48 12.44V14.44ZM127.605 15.0125C128.205 15.3931 128.657 15.9077 128.97 16.5789L130.782 15.7331C130.312 14.7243 129.606 13.9135 128.676 13.3235L127.605 15.0125ZM128.978 16.5952C129.317 17.288 129.492 18.0601 129.492 18.928H131.492C131.492 17.7799 131.257 16.704 130.775 15.7168L128.978 16.5952ZM129.492 18.928V26.88H131.492V18.928H129.492ZM129.492 26.88C129.492 26.9549 129.479 26.9886 129.42 27.0432L130.781 28.5088C131.244 28.0781 131.492 27.5145 131.492 26.88H129.492ZM129.393 27.0689C129.345 27.1171 129.304 27.14 129.204 27.14V29.14C129.814 29.14 130.37 28.9202 130.807 28.4831L129.393 27.0689ZM129.204 27.14C129.105 27.14 129.064 27.1171 129.015 27.0689L127.601 28.4831C128.038 28.9202 128.594 29.14 129.204 29.14V27.14ZM129.015 27.0689C128.967 27.0207 128.944 26.9794 128.944 26.88H126.944C126.944 27.49 127.164 28.046 127.601 28.4831L129.015 27.0689ZM128.944 26.88V19.208H126.944V26.88H128.944ZM128.944 19.208C128.944 17.9393 128.66 16.801 127.917 15.9764C127.156 15.132 126.073 14.792 124.864 14.792V16.792C125.708 16.792 126.166 17.0213 126.432 17.3156C126.715 17.6296 126.944 18.1994 126.944 19.208H128.944ZM124.864 14.792C123.747 14.792 122.716 15.0856 121.799 15.6816L122.889 17.3584C123.466 16.9838 124.115 16.792 124.864 16.792V14.792ZM121.79 15.6879C120.96 16.241 120.195 16.9706 119.49 17.8575L121.055 19.1025C121.656 18.3468 122.273 17.7696 122.899 17.352L121.79 15.6879ZM119.272 18.48V26.88H121.272V18.48H119.272ZM119.272 26.88C119.272 26.9549 119.259 26.9886 119.2 27.0432L120.561 28.5088C121.024 28.0781 121.272 27.5145 121.272 26.88H119.272ZM119.173 27.0689C119.125 27.1171 119.084 27.14 118.984 27.14V29.14C119.594 29.14 120.15 28.9202 120.587 28.4831L119.173 27.0689ZM138.791 27.412L138.288 28.2763L138.297 28.2817L138.306 28.2869L138.791 27.412ZM136.271 24.836L135.397 25.3229L135.402 25.3314L135.407 25.3399L136.271 24.836ZM136.271 16.912L135.403 16.4143L135.401 16.419L136.271 16.912ZM138.791 14.336L139.282 15.2072L139.287 15.2042L138.791 14.336ZM146.883 15.568L146.162 16.2607L147.883 18.0527V15.568H146.883ZM147.247 7.784L146.566 7.0512L146.553 7.0638L146.54 7.07689L147.247 7.784ZM149.067 7.812L148.334 8.49245L148.347 8.50602L148.36 8.51911L149.067 7.812ZM149.067 27.776L149.774 28.4831L149.067 27.776ZM147.247 27.776L146.54 28.4831L146.553 28.4962L146.566 28.5088L147.247 27.776ZM146.883 26.152H147.883V23.6673L146.162 25.4593L146.883 26.152ZM144.867 25.34L145.314 26.2345L145.323 26.23L144.867 25.34ZM146.883 23.8L147.622 24.4738L147.883 24.1874V23.8H146.883ZM146.883 17.92H147.883V17.5326L147.622 17.2462L146.883 17.92ZM144.867 16.408L144.402 17.2934L144.415 17.3003L144.428 17.3068L144.867 16.408ZM139.127 17.136L139.849 17.8276L139.849 17.8276L139.127 17.136ZM142.095 27.28C141.112 27.28 140.177 27.0365 139.275 26.5371L138.306 28.2869C139.495 28.9449 140.762 29.28 142.095 29.28V27.28ZM139.294 26.5477C138.43 26.0451 137.709 25.3169 137.134 24.3321L135.407 25.3399C136.139 26.5951 137.098 27.5842 138.288 28.2763L139.294 26.5477ZM137.144 24.3491C136.605 23.3816 136.319 22.2291 136.319 20.86H134.319C134.319 22.5149 134.667 24.0131 135.397 25.3229L137.144 24.3491ZM136.319 20.86C136.319 19.4905 136.605 18.3503 137.141 17.405L135.401 16.419C134.667 17.7137 134.319 19.2055 134.319 20.86H136.319ZM137.138 17.4097C137.712 16.4088 138.429 15.6877 139.282 15.2072L138.3 13.4648C137.099 14.1417 136.136 15.1378 135.403 16.4143L137.138 17.4097ZM139.287 15.2042C140.187 14.6896 141.119 14.44 142.095 14.44V12.44C140.756 12.44 139.485 12.7877 138.295 13.4678L139.287 15.2042ZM142.095 14.44C143.63 14.44 144.972 15.0219 146.162 16.2607L147.604 14.8753C146.068 13.2767 144.218 12.44 142.095 12.44V14.44ZM147.883 15.568V8.708H145.883V15.568H147.883ZM147.883 8.708C147.883 8.5742 147.916 8.52883 147.954 8.49111L146.54 7.07689C146.092 7.52451 145.883 8.09513 145.883 8.708H147.883ZM147.927 8.51679C148.005 8.44482 148.07 8.42 148.171 8.42V6.42C147.562 6.42 147.011 6.63784 146.566 7.0512L147.927 8.51679ZM148.171 8.42C148.246 8.42 148.279 8.4336 148.334 8.49245L149.8 7.13155C149.369 6.66773 148.805 6.42 148.171 6.42V8.42ZM148.36 8.51911C148.408 8.56734 148.431 8.60863 148.431 8.708H150.431C150.431 8.09803 150.211 7.54199 149.774 7.10489L148.36 8.51911ZM148.431 8.708V26.88H150.431V8.708H148.431ZM148.431 26.88C148.431 26.9794 148.408 27.0207 148.36 27.0689L149.774 28.4831C150.211 28.046 150.431 27.49 150.431 26.88H148.431ZM148.36 27.0689C148.311 27.1171 148.27 27.14 148.171 27.14V29.14C148.781 29.14 149.337 28.9202 149.774 28.4831L148.36 27.0689ZM148.171 27.14C148.07 27.14 148.005 27.1152 147.927 27.0432L146.566 28.5088C147.011 28.9222 147.562 29.14 148.171 29.14V27.14ZM147.954 27.0689C147.906 27.0207 147.883 26.9794 147.883 26.88H145.883C145.883 27.49 146.103 28.046 146.54 28.4831L147.954 27.0689ZM147.883 26.88V26.152H145.883V26.88H147.883ZM146.162 25.4593C144.972 26.6981 143.63 27.28 142.095 27.28V29.28C144.218 29.28 146.068 28.4433 147.604 26.8447L146.162 25.4593ZM142.459 26.9C143.468 26.9 144.424 26.6792 145.314 26.2344L144.419 24.4456C143.816 24.7475 143.167 24.9 142.459 24.9V26.9ZM145.323 26.23C146.194 25.7835 146.962 25.197 147.622 24.4738L146.144 23.1262C145.646 23.6723 145.07 24.1125 144.411 24.45L145.323 26.23ZM147.883 23.8V17.92H145.883V23.8H147.883ZM147.622 17.2462C146.959 16.5191 146.185 15.9384 145.305 15.5092L144.428 17.3068C145.079 17.6243 145.649 18.0516 146.144 18.5938L147.622 17.2462ZM145.332 15.5226C144.439 15.0539 143.476 14.82 142.459 14.82V16.82C143.159 16.82 143.801 16.9781 144.402 17.2934L145.332 15.5226ZM142.459 14.82C140.846 14.82 139.46 15.3423 138.404 16.4444L139.849 17.8276C140.474 17.175 141.309 16.82 142.459 16.82V14.82ZM138.404 16.4444C137.335 17.5616 136.867 19.0823 136.867 20.86H138.867C138.867 19.427 139.239 18.4651 139.849 17.8276L138.404 16.4444ZM136.867 20.86C136.867 22.6377 137.335 24.1584 138.404 25.2756L139.849 23.8924C139.239 23.2549 138.867 22.293 138.867 20.86H136.867ZM138.404 25.2756C139.46 26.3777 140.846 26.9 142.459 26.9V24.9C141.309 24.9 140.474 24.545 139.849 23.8924L138.404 25.2756ZM155.447 10.388L154.74 11.0951L154.74 11.0951L155.447 10.388ZM157.631 10.388L158.338 11.0951L158.338 11.0951L157.631 10.388ZM155.615 27.776L156.322 27.0689L156.322 27.0689L155.615 27.776ZM155.615 13.972L156.322 14.6791L156.335 14.666L156.348 14.6524L155.615 13.972ZM157.435 13.944L158.142 13.2369L157.435 13.944ZM157.407 27.776L156.726 27.0432L156.713 27.0558L156.7 27.0689L157.407 27.776ZM156.455 9.808C156.331 9.808 156.248 9.7755 156.154 9.68089L154.74 11.0951C155.205 11.5605 155.795 11.808 156.455 11.808V9.808ZM156.154 9.68089C156.059 9.58629 156.027 9.50377 156.027 9.38H154.027C154.027 10.0402 154.274 10.6297 154.74 11.0951L156.154 9.68089ZM156.027 9.38V9.268H154.027V9.38H156.027ZM156.027 9.268C156.027 9.14423 156.059 9.06171 156.154 8.96711L154.74 7.55289C154.274 8.01829 154.027 8.60777 154.027 9.268H156.027ZM156.154 8.96711C156.248 8.8725 156.331 8.84 156.455 8.84V6.84C155.795 6.84 155.205 7.0875 154.74 7.55289L156.154 8.96711ZM156.455 8.84H156.623V6.84H156.455V8.84ZM156.623 8.84C156.747 8.84 156.829 8.8725 156.924 8.96711L158.338 7.55289C157.872 7.0875 157.283 6.84 156.623 6.84V8.84ZM156.924 8.96711C157.018 9.06171 157.051 9.14423 157.051 9.268H159.051C159.051 8.60777 158.803 8.01829 158.338 7.55289L156.924 8.96711ZM157.051 9.268V9.38H159.051V9.268H157.051ZM157.051 9.38C157.051 9.50377 157.018 9.58629 156.924 9.68089L158.338 11.0951C158.803 10.6297 159.051 10.0402 159.051 9.38H157.051ZM156.924 9.68089C156.829 9.7755 156.747 9.808 156.623 9.808V11.808C157.283 11.808 157.872 11.5605 158.338 11.0951L156.924 9.68089ZM156.623 9.808H156.455V11.808H156.623V9.808ZM156.511 27.14C156.411 27.14 156.37 27.1171 156.322 27.0689L154.908 28.4831C155.345 28.9202 155.901 29.14 156.511 29.14V27.14ZM156.322 27.0689C156.274 27.0207 156.251 26.9794 156.251 26.88H154.251C154.251 27.49 154.471 28.046 154.908 28.4831L156.322 27.0689ZM156.251 26.88V14.868H154.251V26.88H156.251ZM156.251 14.868C156.251 14.7686 156.274 14.7273 156.322 14.6791L154.908 13.2649C154.471 13.702 154.251 14.258 154.251 14.868H156.251ZM156.348 14.6524C156.402 14.5936 156.436 14.58 156.511 14.58V12.58C155.876 12.58 155.313 12.8277 154.882 13.2915L156.348 14.6524ZM156.511 14.58C156.645 14.58 156.69 14.6134 156.728 14.6511L158.142 13.2369C157.694 12.7893 157.124 12.58 156.511 12.58V14.58ZM156.728 14.6511C156.765 14.6888 156.799 14.7342 156.799 14.868H158.799C158.799 14.2551 158.589 13.6845 158.142 13.2369L156.728 14.6511ZM156.799 14.868V26.88H158.799V14.868H156.799ZM156.799 26.88C156.799 26.9549 156.785 26.9886 156.726 27.0432L158.087 28.5088C158.551 28.0781 158.799 27.5145 158.799 26.88H156.799ZM156.7 27.0689C156.651 27.1171 156.61 27.14 156.511 27.14V29.14C157.121 29.14 157.677 28.9202 158.114 28.4831L156.7 27.0689ZM163.987 27.776L164.695 27.0689L164.695 27.0689L163.987 27.776ZM163.987 13.972L164.695 14.6791L164.708 14.666L164.72 14.6524L163.987 13.972ZM165.779 13.972L165.047 14.6524L165.072 14.6796L165.099 14.7048L165.779 13.972ZM166.171 16.016H165.171V18.6118L166.913 16.6869L166.171 16.016ZM168.467 14.14L168.961 15.0095L168.467 14.14ZM174.039 14.168L173.494 15.0065L173.504 15.0125L174.039 14.168ZM175.775 16.156L174.869 16.5789L174.873 16.5871L174.877 16.5952L175.775 16.156ZM175.999 27.776L175.319 27.0432L175.305 27.0558L175.292 27.0689L175.999 27.776ZM174.207 27.776L173.5 28.4831L173.5 28.4831L174.207 27.776ZM168.243 16.52L167.698 15.6815L167.689 15.6879L168.243 16.52ZM166.171 18.48L165.389 17.8575L165.171 18.1308V18.48H166.171ZM165.779 27.776L165.099 27.0432L165.085 27.0558L165.072 27.0689L165.779 27.776ZM164.883 27.14C164.784 27.14 164.743 27.1171 164.695 27.0689L163.28 28.4831C163.717 28.9202 164.273 29.14 164.883 29.14V27.14ZM164.695 27.0689C164.646 27.0207 164.623 26.9794 164.623 26.88H162.623C162.623 27.49 162.843 28.046 163.28 28.4831L164.695 27.0689ZM164.623 26.88V14.868H162.623V26.88H164.623ZM164.623 14.868C164.623 14.7686 164.646 14.7273 164.695 14.6791L163.28 13.2649C162.843 13.702 162.623 14.258 162.623 14.868H164.623ZM164.72 14.6524C164.775 14.5936 164.809 14.58 164.883 14.58V12.58C164.249 12.58 163.685 12.8277 163.255 13.2915L164.72 14.6524ZM164.883 14.58C164.958 14.58 164.992 14.5936 165.047 14.6524L166.512 13.2915C166.082 12.8277 165.518 12.58 164.883 12.58V14.58ZM165.099 14.7048C165.158 14.7594 165.171 14.7931 165.171 14.868H167.171C167.171 14.2335 166.924 13.6699 166.46 13.2392L165.099 14.7048ZM165.171 14.868V16.016H167.171V14.868H165.171ZM166.913 16.6869C167.559 15.9725 168.243 15.4177 168.961 15.0095L167.973 13.2705C167.049 13.7957 166.202 14.4915 165.43 15.3451L166.913 16.6869ZM168.961 15.0095C169.606 14.643 170.4 14.44 171.379 14.44V12.44C170.118 12.44 168.971 12.7037 167.973 13.2705L168.961 15.0095ZM171.379 14.44C172.243 14.44 172.934 14.6419 173.494 15.0064L174.584 13.3296C173.652 12.7234 172.569 12.44 171.379 12.44V14.44ZM173.504 15.0125C174.104 15.3931 174.556 15.9077 174.869 16.5789L176.682 15.7331C176.211 14.7243 175.505 13.9135 174.575 13.3235L173.504 15.0125ZM174.877 16.5952C175.216 17.288 175.391 18.0601 175.391 18.928H177.391C177.391 17.7799 177.156 16.704 176.674 15.7168L174.877 16.5952ZM175.391 18.928V26.88H177.391V18.928H175.391ZM175.391 26.88C175.391 26.9549 175.378 26.9886 175.319 27.0432L176.68 28.5088C177.144 28.0781 177.391 27.5145 177.391 26.88H175.391ZM175.292 27.0689C175.244 27.1171 175.203 27.14 175.103 27.14V29.14C175.713 29.14 176.269 28.9202 176.707 28.4831L175.292 27.0689ZM175.103 27.14C175.004 27.14 174.963 27.1171 174.915 27.0689L173.5 28.4831C173.937 28.9202 174.493 29.14 175.103 29.14V27.14ZM174.915 27.0689C174.866 27.0207 174.843 26.9794 174.843 26.88H172.843C172.843 27.49 173.063 28.046 173.5 28.4831L174.915 27.0689ZM174.843 26.88V19.208H172.843V26.88H174.843ZM174.843 19.208C174.843 17.9393 174.56 16.801 173.816 15.9764C173.055 15.132 171.973 14.792 170.763 14.792V16.792C171.608 16.792 172.065 17.0213 172.331 17.3156C172.614 17.6296 172.843 18.1994 172.843 19.208H174.843ZM170.763 14.792C169.646 14.792 168.615 15.0856 167.698 15.6816L168.788 17.3584C169.365 16.9838 170.014 16.792 170.763 16.792V14.792ZM167.689 15.6879C166.859 16.241 166.094 16.9706 165.389 17.8575L166.954 19.1025C167.555 18.3468 168.172 17.7696 168.798 17.352L167.689 15.6879ZM165.171 18.48V26.88H167.171V18.48H165.171ZM165.171 26.88C165.171 26.9549 165.158 26.9886 165.099 27.0432L166.46 28.5088C166.924 28.0781 167.171 27.5145 167.171 26.88H165.171ZM165.072 27.0689C165.024 27.1171 164.983 27.14 164.883 27.14V29.14C165.493 29.14 166.049 28.9202 166.487 28.4831L165.072 27.0689ZM182.758 33.264L182.236 34.1173L182.247 34.1235L182.257 34.1294L182.758 33.264ZM182.562 31.472L181.855 30.7649L181.825 30.7943L181.799 30.8261L182.562 31.472ZM183.878 31.248L184.325 30.3536L184.288 30.335L184.249 30.3195L183.878 31.248ZM192.782 25.872H193.782V23.3367L192.051 25.1893L192.782 25.872ZM184.774 27.188L184.295 28.0659L184.305 28.071L184.314 28.076L184.774 27.188ZM182.226 24.724L181.372 25.2449L181.376 25.2514L182.226 24.724ZM182.226 16.744L183.076 17.2714L183.08 17.2649L182.226 16.744ZM184.774 14.28L185.24 15.1646L185.246 15.1615L184.774 14.28ZM192.782 15.568L192.051 16.2507L193.782 18.1033V15.568H192.782ZM193.146 13.972L193.853 14.6791L193.866 14.666L193.879 14.6524L193.146 13.972ZM194.938 13.972L194.205 14.6525L194.23 14.6796L194.257 14.7048L194.938 13.972ZM193.622 32.816L194.366 33.4838L193.622 32.816ZM190.85 25.116L190.364 24.2418L190.364 24.2418L190.85 25.116ZM192.782 23.604L193.5 24.3005L193.782 24.0095V23.604H192.782ZM192.782 17.836H193.782V17.4305L193.5 17.1395L192.782 17.836ZM190.85 16.324L191.336 15.4498L191.336 15.4498L190.85 16.324ZM185.082 17.052L185.774 17.7743L185.774 17.774L185.082 17.052ZM185.082 24.416L184.382 25.1307L184.39 25.1382L184.398 25.1455L185.082 24.416ZM188.75 33.72C187.754 33.72 186.745 33.5914 185.72 33.3308L185.228 35.2692C186.405 35.5686 187.58 35.72 188.75 35.72V33.72ZM185.72 33.3308C184.677 33.0655 183.865 32.7492 183.259 32.3986L182.257 34.1294C183.07 34.6002 184.069 34.9745 185.228 35.2692L185.72 33.3308ZM183.279 32.4107C183.265 32.4019 183.261 32.3975 183.263 32.3995C183.266 32.4019 183.268 32.4054 183.269 32.4077C183.272 32.4136 183.254 32.3834 183.254 32.284H181.254C181.254 33.0234 181.558 33.7024 182.236 34.1173L183.279 32.4107ZM183.254 32.284C183.254 32.2378 183.262 32.1926 183.325 32.1179L181.799 30.8261C181.451 31.2367 181.254 31.7329 181.254 32.284H183.254ZM183.269 32.1791C183.296 32.1524 183.311 32.1458 183.315 32.144C183.32 32.1422 183.335 32.136 183.374 32.136V30.136C182.792 30.136 182.267 30.353 181.855 30.7649L183.269 32.1791ZM183.374 32.136C183.36 32.136 183.4 32.1337 183.507 32.1765L184.249 30.3195C183.983 30.213 183.686 30.136 183.374 30.136V32.136ZM183.431 32.1424C184.995 32.9245 186.689 33.312 188.498 33.312V31.312C186.984 31.312 185.598 30.9902 184.325 30.3536L183.431 32.1424ZM188.498 33.312C190.097 33.312 191.475 32.8831 192.44 31.8554C193.394 30.8396 193.782 29.4083 193.782 27.748H191.782C191.782 29.1304 191.456 29.9811 190.982 30.4866C190.518 30.9802 189.755 31.312 188.498 31.312V33.312ZM193.782 27.748V25.872H191.782V27.748H193.782ZM192.051 25.1893C190.906 26.4147 189.571 27 187.994 27V29C190.15 29 192.007 28.1666 193.513 26.5547L192.051 25.1893ZM187.994 27C187.064 27 186.147 26.7729 185.234 26.3L184.314 28.076C185.491 28.6857 186.722 29 187.994 29V27ZM185.253 26.3101C184.391 25.8402 183.665 25.1459 183.076 24.1966L181.376 25.2514C182.131 26.4674 183.103 27.4158 184.295 28.0659L185.253 26.3101ZM183.08 24.2031C182.522 23.2894 182.218 22.1439 182.218 20.72H180.218C180.218 22.4321 180.586 23.9559 181.372 25.2449L183.08 24.2031ZM182.218 20.72C182.218 19.2954 182.522 18.1628 183.076 17.2714L181.376 16.2166C180.586 17.4905 180.218 19.0086 180.218 20.72H182.218ZM183.08 17.2649C183.668 16.2998 184.391 15.6127 185.24 15.1646L184.308 13.3954C183.104 14.03 182.127 14.9855 181.372 16.2231L183.08 17.2649ZM185.246 15.1615C186.158 14.6732 187.07 14.44 187.994 14.44V12.44C186.715 12.44 185.481 12.7668 184.302 13.3985L185.246 15.1615ZM187.994 14.44C189.571 14.44 190.906 15.0253 192.051 16.2507L193.513 14.8853C192.007 13.2734 190.15 12.44 187.994 12.44V14.44ZM193.782 15.568V14.868H191.782V15.568H193.782ZM193.782 14.868C193.782 14.7686 193.805 14.7273 193.853 14.6791L192.439 13.2649C192.002 13.702 191.782 14.258 191.782 14.868H193.782ZM193.879 14.6524C193.933 14.5936 193.967 14.58 194.042 14.58V12.58C193.407 12.58 192.844 12.8277 192.413 13.2915L193.879 14.6524ZM194.042 14.58C194.117 14.58 194.15 14.5936 194.205 14.6525L195.671 13.2915C195.24 12.8277 194.676 12.58 194.042 12.58V14.58ZM194.257 14.7048C194.316 14.7594 194.33 14.7931 194.33 14.868H196.33C196.33 14.2335 196.082 13.6699 195.618 13.2392L194.257 14.7048ZM194.33 14.868V27.384H196.33V14.868H194.33ZM194.33 27.384C194.33 29.5834 193.798 31.122 192.878 32.1482L194.366 33.4838C195.723 31.9714 196.33 29.8886 196.33 27.384H194.33ZM192.878 32.1482C191.972 33.1575 190.648 33.72 188.75 33.72V35.72C191.071 35.72 192.994 35.0132 194.366 33.4838L192.878 32.1482ZM188.526 26.676C189.549 26.676 190.495 26.4571 191.336 25.9902L190.364 24.2418C189.861 24.5216 189.258 24.676 188.526 24.676V26.676ZM191.336 25.9902C192.105 25.5627 192.825 24.9951 193.5 24.3005L192.064 22.9075C191.507 23.4823 190.939 23.9226 190.364 24.2418L191.336 25.9902ZM193.782 23.604V17.836H191.782V23.604H193.782ZM193.5 17.1395C192.825 16.4449 192.105 15.8773 191.336 15.4498L190.364 17.1982C190.939 17.5174 191.507 17.9577 192.064 18.5325L193.5 17.1395ZM191.336 15.4498C190.495 14.9829 189.549 14.764 188.526 14.764V16.764C189.258 16.764 189.861 16.9184 190.364 17.1982L191.336 15.4498ZM188.526 14.764C186.904 14.764 185.497 15.2696 184.39 16.33L185.774 17.774C186.459 17.117 187.348 16.764 188.526 16.764V14.764ZM184.39 16.3297C183.258 17.4134 182.766 18.9335 182.766 20.72H184.766C184.766 19.2959 185.151 18.3706 185.774 17.7743L184.39 16.3297ZM182.766 20.72C182.766 22.5079 183.259 24.031 184.382 25.1307L185.781 23.7013C185.15 23.0836 184.766 22.1428 184.766 20.72H182.766ZM184.398 25.1455C185.505 26.1838 186.91 26.676 188.526 26.676V24.676C187.342 24.676 186.45 24.3282 185.766 23.6865L184.398 25.1455Z" fill="white"/>
</svg>
